<svg xmlns="http://www.w3.org/2000/svg" xmlns:xlink="http://www.w3.org/1999/xlink" version="1.1" viewBox="0 0 3120 1419" style="background: #ffffff"><defs joint-selector="defs"></defs><g joint-selector="layers"  transform="matrix(1,0,0,1,0,0)"><g ></g><g ><!--z-index:1--><!--z-index:2--><!--z-index:3--><!--z-index:4--><!--z-index:5--><!--z-index:6--><!--z-index:7--><!--z-index:8--><!--z-index:9--><!--z-index:10--><!--z-index:11--><!--z-index:12--><!--z-index:13--><!--z-index:14--><g   id="j_7"  transform="translate(20,1375)"><g id="v-46"><text  id="v-47" font-size="24px" xml:space="preserve" y="0.8em" font-weight="normal" text-anchor="start" fill="#444444" pointer-events="none" display="block" font-family="Open Sans, Tahoma, Arial"><tspan dy="0"  display="block">Saturday, January 31, 2026 at 5:52 PM Colombia Standard Time</tspan></text></g></g><!--z-index:15--><g   id="j_6"  transform="translate(20,1329)"><g id="v-44"><text  id="v-45" font-size="36px" xml:space="preserve" y="0.8em" font-weight="normal" text-anchor="start" fill="#444444" pointer-events="none" display="block" font-family="Open Sans, Tahoma, Arial"><tspan dy="0"  display="block">Container View: Calisthenics AI Trainer</tspan></text></g></g><!--z-index:16--><g   id="j_8"  transform="translate(200,480)" style=""><g  id="v-51" style="opacity: 1;"><rect  id="v-52" rx="1" ry="1" stroke-width="2" pointer-events="visiblePainted" fill="#ffffff" stroke="#444444" stroke-dasharray="" width="450" height="300"></rect><text  id="v-53" font-size="33.599999999999994px" xml:space="preserve" y="86.9" font-weight="bold" text-anchor="middle" pointer-events="visible" font-family="Open Sans, Tahoma, Arial" fill="#444444" dominant-baseline="hanging" transform="matrix(1,0,0,1,225,0)"><tspan dy="0" >Athlete</tspan></text><text  id="v-54" font-size="16.799999999999997px" xml:space="preserve" y="128.5" text-anchor="middle" font-family="Open Sans, Tahoma, Arial" fill="#444444" dominant-baseline="hanging" transform="matrix(1,0,0,1,225,0)" style="display: block;"><tspan dy="0" >[Person]</tspan></text><text  id="v-55" font-size="24px" xml:space="preserve" y="160.3" text-anchor="middle" font-family="Open Sans, Tahoma, Arial" fill="#444444" dominant-baseline="hanging" transform="matrix(1,0,0,1,225,0)" style="display: block;"><tspan dy="0" >Uploads videos and receives</tspan><tspan dy="1.2em" x="0" >feedback</tspan></text><g  id="v-56" color="#444444" transform="matrix(1,0,0,1,222.5,268)" display="none"><g ></g><g ></g><g ></g><g ></g></g><image  id="v-57"></image></g></g><!--z-index:17--><g   id="j_10"  transform="translate(930,160)" style=""><g id="v-68"><rect  id="v-69" width="1990" height="1019" rx="0" ry="0" stroke-width="2" pointer-events="none" stroke="#444444" fill="#ffffff" stroke-dasharray=""></rect><text  id="v-70" font-size="33.599999999999994px" xml:space="preserve" y="980" font-weight="bold" text-anchor="start" pointer-events="visible" font-family="Open Sans, Tahoma, Arial" fill="#444444" transform="matrix(1,0,0,1,15,0)"><tspan dy="0" >Calisthenics AI Trainer</tspan></text><text  id="v-71" font-size="16.799999999999997px" xml:space="preserve" y="1004" font-weight="normal" text-anchor="start" pointer-events="visible" font-family="Open Sans, Tahoma, Arial" fill="#444444" transform="matrix(1,0,0,1,15,0)"><tspan dy="0" >[Software System]</tspan></text><image  id="v-72" pointer-events="visible"></image></g></g><!--z-index:18--><g   id="j_9"  transform="translate(950,480)" style=""><g  id="v-61" style="opacity: 1;"><rect  id="v-62" rx="1" ry="1" stroke-width="2" pointer-events="visiblePainted" fill="#ffffff" stroke="#444444" stroke-dasharray="" width="450" height="300"></rect><text  id="v-63" font-size="33.599999999999994px" xml:space="preserve" y="101.30000000000001" font-weight="bold" text-anchor="middle" pointer-events="visible" font-family="Open Sans, Tahoma, Arial" fill="#444444" dominant-baseline="hanging" transform="matrix(1,0,0,1,225,0)"><tspan dy="0" >Web App</tspan></text><text  id="v-64" font-size="16.799999999999997px" xml:space="preserve" y="142.9" text-anchor="middle" font-family="Open Sans, Tahoma, Arial" fill="#444444" dominant-baseline="hanging" transform="matrix(1,0,0,1,225,0)" style="display: block;"><tspan dy="0" >[Container: React]</tspan></text><text  id="v-65" font-size="24px" xml:space="preserve" y="174.7" text-anchor="middle" font-family="Open Sans, Tahoma, Arial" fill="#444444" dominant-baseline="hanging" transform="matrix(1,0,0,1,225,0)" style="display: block;"><tspan dy="0" >UI for upload and feedback</tspan></text><g  id="v-66" color="#444444" transform="matrix(1,0,0,1,222.5,268)" display="none"><g ></g><g ></g><g ></g><g ></g></g><image  id="v-67"></image></g></g><!--z-index:19--><g   id="j_11"  transform="translate(1700,480)" style=""><g  id="v-76" style="opacity: 1;"><rect  id="v-77" rx="1" ry="1" stroke-width="2" pointer-events="visiblePainted" fill="#ffffff" stroke="#444444" stroke-dasharray="" width="450" height="300"></rect><text  id="v-78" font-size="33.599999999999994px" xml:space="preserve" y="101.30000000000001" font-weight="bold" text-anchor="middle" pointer-events="visible" font-family="Open Sans, Tahoma, Arial" fill="#444444" dominant-baseline="hanging" transform="matrix(1,0,0,1,225,0)"><tspan dy="0" >API</tspan></text><text  id="v-79" font-size="16.799999999999997px" xml:space="preserve" y="142.9" text-anchor="middle" font-family="Open Sans, Tahoma, Arial" fill="#444444" dominant-baseline="hanging" transform="matrix(1,0,0,1,225,0)" style="display: block;"><tspan dy="0" >[Container: .NET 8]</tspan></text><text  id="v-80" font-size="24px" xml:space="preserve" y="174.7" text-anchor="middle" font-family="Open Sans, Tahoma, Arial" fill="#444444" dominant-baseline="hanging" transform="matrix(1,0,0,1,225,0)" style="display: block;"><tspan dy="0" >Orchestration and backend</tspan></text><g  id="v-81" color="#444444" transform="matrix(1,0,0,1,222.5,268)" display="none"><g ></g><g ></g><g ></g><g ></g></g><image  id="v-82"></image></g></g><!--z-index:20--><g   id="j_12"  transform="translate(2450,780)" style=""><g  id="v-86" style="opacity: 1;"><rect  id="v-87" rx="1" ry="1" stroke-width="2" pointer-events="visiblePainted" fill="#ffffff" stroke="#444444" stroke-dasharray="" width="450" height="300"></rect><text  id="v-88" font-size="33.599999999999994px" xml:space="preserve" y="86.9" font-weight="bold" text-anchor="middle" pointer-events="visible" font-family="Open Sans, Tahoma, Arial" fill="#444444" dominant-baseline="hanging" transform="matrix(1,0,0,1,225,0)"><tspan dy="0" >AI Service</tspan></text><text  id="v-89" font-size="16.799999999999997px" xml:space="preserve" y="128.5" text-anchor="middle" font-family="Open Sans, Tahoma, Arial" fill="#444444" dominant-baseline="hanging" transform="matrix(1,0,0,1,225,0)" style="display: block;"><tspan dy="0" >[Container: Python]</tspan></text><text  id="v-90" font-size="24px" xml:space="preserve" y="160.3" text-anchor="middle" font-family="Open Sans, Tahoma, Arial" fill="#444444" dominant-baseline="hanging" transform="matrix(1,0,0,1,225,0)" style="display: block;"><tspan dy="0" >Pose estimation + feedback</tspan><tspan dy="1.2em" x="0" >generation</tspan></text><g  id="v-91" color="#444444" transform="matrix(1,0,0,1,222.5,268)" display="none"><g ></g><g ></g><g ></g><g ></g></g><image  id="v-92"></image></g></g><!--z-index:21--><g   id="j_13"  transform="translate(2450,180)" style=""><g  id="v-96" style="opacity: 1;"><rect  id="v-97" rx="1" ry="1" stroke-width="2" pointer-events="visiblePainted" fill="#ffffff" stroke="#444444" stroke-dasharray="" width="450" height="300"></rect><text  id="v-98" font-size="33.599999999999994px" xml:space="preserve" y="101.30000000000001" font-weight="bold" text-anchor="middle" pointer-events="visible" font-family="Open Sans, Tahoma, Arial" fill="#444444" dominant-baseline="hanging" transform="matrix(1,0,0,1,225,0)"><tspan dy="0" >Database</tspan></text><text  id="v-99" font-size="16.799999999999997px" xml:space="preserve" y="142.9" text-anchor="middle" font-family="Open Sans, Tahoma, Arial" fill="#444444" dominant-baseline="hanging" transform="matrix(1,0,0,1,225,0)" style="display: block;"><tspan dy="0" >[Container: PostgreSQL]</tspan></text><text  id="v-100" font-size="24px" xml:space="preserve" y="174.7" text-anchor="middle" font-family="Open Sans, Tahoma, Arial" fill="#444444" dominant-baseline="hanging" transform="matrix(1,0,0,1,225,0)" style="display: block;"><tspan dy="0" >Stores users/jobs/results</tspan></text><g  id="v-101" color="#444444" transform="matrix(1,0,0,1,222.5,268)" display="none"><g ></g><g ></g><g ></g><g ></g></g><image  id="v-102"></image></g></g><!--z-index:22--><g   id="j_14" ><path  stroke="#444444" d="M 2150 720 L 2450 840" id="v-115" stroke-width="2" stroke-dasharray="8 8" fill="none" style="opacity: 1;"></path><path  fill="black" stroke="black" d="M 0 0 0 0" transform="matrix(0.9284766955435522,0.37139066470837206,-0.37139066470837206,0.9284766955435522,2150,720)"></path><path  fill="#444444" stroke="#444444" d="M 20 0 L 0 10 L 20 20 z" id="v-117" transform="matrix(-0.9284767079069662,-0.3713906337998343,0.3713906337998343,-0.9284767079069662,2446.286192772321,849.2847451944117)" style="opacity: 1;"></path><path  d="M 2150 720 L 2450 840" id="v-116" fill="none" style="cursor: auto; pointer-events: visiblepainted;"></path><g ><g id="v-109"  label-idx="0" cursor="move" transform="matrix(1,0,0,1,2300,780)" style="cursor: default; opacity: 1;"><rect joint-selector="rect" id="v-112" fill="#ffffff" rx="3" ry="3" pointer-events="none" width="130.33433532714844" height="61.424936294555664" transform="matrix(1,0,0,1,-65.8,-30.7)"></rect><text joint-selector="text" id="v-111" font-size="24px" xml:space="preserve" y="0.8em" fill="#444444" text-anchor="middle" pointer-events="none" font-family="Open Sans, Tahoma, Arial" font-weight="normal" transform="matrix(1,0,0,1,0,-23.4)"><tspan dy="0" >Sends</tspan><tspan dy="1.2em" x="0" >jobs/videos</tspan></text></g><g id="v-110"  label-idx="1" cursor="move" transform="matrix(1,0,0,1,2290,806.4000244140625)" style="cursor: default; opacity: 1;"><rect joint-selector="rect" id="v-114" fill="#ffffff" rx="3" ry="3"  width="0" height="0" transform="matrix(1,0,0,1,0,0)" display="none"></rect><text joint-selector="text" id="v-113" fill="#000000" font-size="14" text-anchor="middle" pointer-events="none"></text></g></g><g  display="none" style="display: none;"></g><g  id="v-119" display="none"><g  id="v-107"><path  end="source" d="M 26 0 L 0 13 L 26 26 z"></path></g><g  id="v-108"><path  end="target" d="M 26 0 L 0 13 L 26 26 z"></path></g></g><g  id="v-118" display="none"><g  id="v-106" transform="translate(2187.1390676354104, 734.8556270541642) "><g  event="remove"><circle r="11"></circle><path transform="scale(.8) translate(-16, -16)" d="M24.778,21.419 19.276,15.917 24.777,10.415 21.949,7.585 16.447,13.087 10.945,7.585 8.117,10.415 13.618,15.917 8.116,21.419 10.946,24.248 16.447,18.746 21.948,24.248z"></path><title>Remove link.</title></g><g  event="link:options"><circle r="11" transform="translate(25)"></circle><path fill="white" transform="scale(.55) translate(29, -16)" d="M31.229,17.736c0.064-0.571,0.104-1.148,0.104-1.736s-0.04-1.166-0.104-1.737l-4.377-1.557c-0.218-0.716-0.504-1.401-0.851-2.05l1.993-4.192c-0.725-0.91-1.549-1.734-2.458-2.459l-4.193,1.994c-0.647-0.347-1.334-0.632-2.049-0.849l-1.558-4.378C17.165,0.708,16.588,0.667,16,0.667s-1.166,0.041-1.737,0.105L12.707,5.15c-0.716,0.217-1.401,0.502-2.05,0.849L6.464,4.005C5.554,4.73,4.73,5.554,4.005,6.464l1.994,4.192c-0.347,0.648-0.632,1.334-0.849,2.05l-4.378,1.557C0.708,14.834,0.667,15.412,0.667,16s0.041,1.165,0.105,1.736l4.378,1.558c0.217,0.715,0.502,1.401,0.849,2.049l-1.994,4.193c0.725,0.909,1.549,1.733,2.459,2.458l4.192-1.993c0.648,0.347,1.334,0.633,2.05,0.851l1.557,4.377c0.571,0.064,1.148,0.104,1.737,0.104c0.588,0,1.165-0.04,1.736-0.104l1.558-4.377c0.715-0.218,1.399-0.504,2.049-0.851l4.193,1.993c0.909-0.725,1.733-1.549,2.458-2.458l-1.993-4.193c0.347-0.647,0.633-1.334,0.851-2.049L31.229,17.736zM16,20.871c-2.69,0-4.872-2.182-4.872-4.871c0-2.69,2.182-4.872,4.872-4.872c2.689,0,4.871,2.182,4.871,4.872C20.871,18.689,18.689,20.871,16,20.871z"></path><title>Link options.</title></g></g></g></g><!--z-index:23--><g   id="j_15" ><path  stroke="#444444" d="M 2150 540 L 2450 420" id="v-132" stroke-width="2" stroke-dasharray="8 8" fill="none" style="opacity: 1;"></path><path  fill="black" stroke="black" d="M 0 0 0 0" transform="matrix(0.9284766089996247,-0.37139088106812534,0.37139088106812534,0.9284766089996247,2150,540)"></path><path  fill="#444444" stroke="#444444" d="M 20 0 L 0 10 L 20 20 z" id="v-134" transform="matrix(-0.9284767079069662,0.3713906337998341,-0.3713906337998341,-0.9284767079069662,2453.714005448318,429.28475844614945)" style="opacity: 1;"></path><path  d="M 2150 540 L 2450 420" id="v-133" fill="none" style="cursor: auto; pointer-events: visiblepainted;"></path><g ><g id="v-126"  label-idx="0" cursor="move" transform="matrix(1,0,0,1,2300,480)" style="cursor: default; opacity: 1;"><rect joint-selector="rect" id="v-129" fill="#ffffff" rx="3" ry="3" pointer-events="none" width="148.83804321289062" height="32.62493705749512" transform="matrix(1,0,0,1,-74,-16.3)"></rect><text joint-selector="text" id="v-128" font-size="24px" xml:space="preserve" y="0.8em" fill="#444444" text-anchor="middle" pointer-events="none" font-family="Open Sans, Tahoma, Arial" font-weight="normal" transform="matrix(1,0,0,1,0,-9)"><tspan dy="0" >Reads/Writes</tspan></text></g><g id="v-127"  label-idx="1" cursor="move" transform="matrix(1,0,0,1,2290,492)" style="cursor: default; opacity: 1;"><rect joint-selector="rect" id="v-131" fill="#ffffff" rx="3" ry="3"  width="0" height="0" transform="matrix(1,0,0,1,0,0)" display="none"></rect><text joint-selector="text" id="v-130" fill="#000000" font-size="14" text-anchor="middle" pointer-events="none"></text></g></g><g  display="none" style="display: none;"></g><g  id="v-136" display="none"><g  id="v-124"><path  end="source" d="M 26 0 L 0 13 L 26 26 z"></path></g><g  id="v-125"><path  end="target" d="M 26 0 L 0 13 L 26 26 z"></path></g></g><g  id="v-135" display="none"><g  id="v-123" transform="translate(2187.1390676354104, 525.1443729458358) "><g  event="remove"><circle r="11"></circle><path transform="scale(.8) translate(-16, -16)" d="M24.778,21.419 19.276,15.917 24.777,10.415 21.949,7.585 16.447,13.087 10.945,7.585 8.117,10.415 13.618,15.917 8.116,21.419 10.946,24.248 16.447,18.746 21.948,24.248z"></path><title>Remove link.</title></g><g  event="link:options"><circle r="11" transform="translate(25)"></circle><path fill="white" transform="scale(.55) translate(29, -16)" d="M31.229,17.736c0.064-0.571,0.104-1.148,0.104-1.736s-0.04-1.166-0.104-1.737l-4.377-1.557c-0.218-0.716-0.504-1.401-0.851-2.05l1.993-4.192c-0.725-0.91-1.549-1.734-2.458-2.459l-4.193,1.994c-0.647-0.347-1.334-0.632-2.049-0.849l-1.558-4.378C17.165,0.708,16.588,0.667,16,0.667s-1.166,0.041-1.737,0.105L12.707,5.15c-0.716,0.217-1.401,0.502-2.05,0.849L6.464,4.005C5.554,4.73,4.73,5.554,4.005,6.464l1.994,4.192c-0.347,0.648-0.632,1.334-0.849,2.05l-4.378,1.557C0.708,14.834,0.667,15.412,0.667,16s0.041,1.165,0.105,1.736l4.378,1.558c0.217,0.715,0.502,1.401,0.849,2.049l-1.994,4.193c0.725,0.909,1.549,1.733,2.459,2.458l4.192-1.993c0.648,0.347,1.334,0.633,2.05,0.851l1.557,4.377c0.571,0.064,1.148,0.104,1.737,0.104c0.588,0,1.165-0.04,1.736-0.104l1.558-4.377c0.715-0.218,1.399-0.504,2.049-0.851l4.193,1.993c0.909-0.725,1.733-1.549,2.458-2.458l-1.993-4.193c0.347-0.647,0.633-1.334,0.851-2.049L31.229,17.736zM16,20.871c-2.69,0-4.872-2.182-4.872-4.871c0-2.69,2.182-4.872,4.872-4.872c2.689,0,4.871,2.182,4.871,4.872C20.871,18.689,18.689,20.871,16,20.871z"></path><title>Link options.</title></g></g></g></g><!--z-index:24--><g   id="j_16" ><path  stroke="#444444" d="M 650 630 L 950 630" id="v-146" stroke-width="2" stroke-dasharray="8 8" fill="none" style="opacity: 1;"></path><path  fill="black" stroke="black" d="M 0 0 0 0" transform="matrix(1.0000000000000002,0,0,1.0000000000000002,650,630)"></path><path  fill="#444444" stroke="#444444" d="M 20 0 L 0 10 L 20 20 z" id="v-148" transform="matrix(-1.0000000000000002,1.2246467991473535e-16,-1.2246467991473535e-16,-1.0000000000000002,950,640)" style="opacity: 1;"></path><path  d="M 650 630 L 950 630" id="v-147" fill="none" style="cursor: auto; pointer-events: visiblepainted;"></path><g ><g id="v-140"  label-idx="0" cursor="move" transform="matrix(1,0,0,1,800,630)" style="cursor: default; opacity: 1;"><rect joint-selector="rect" id="v-143" fill="#ffffff" rx="3" ry="3" pointer-events="none" width="54.64397048950195" height="32.62493705749512" transform="matrix(1,0,0,1,-26.9,-16.3)"></rect><text joint-selector="text" id="v-142" font-size="24px" xml:space="preserve" y="0.8em" fill="#444444" text-anchor="middle" pointer-events="none" font-family="Open Sans, Tahoma, Arial" font-weight="normal" transform="matrix(1,0,0,1,0,-9)"><tspan dy="0" >Uses</tspan></text></g><g id="v-141"  label-idx="1" cursor="move" transform="matrix(1,0,0,1,790,642)" style="cursor: default; opacity: 1;"><rect joint-selector="rect" id="v-145" fill="#ffffff" rx="3" ry="3"  width="0" height="0" transform="matrix(1,0,0,1,0,0)" display="none"></rect><text joint-selector="text" id="v-144" fill="#000000" font-size="14" text-anchor="middle" pointer-events="none"></text></g></g><g  display="none" style="display: none;"></g><g  id="v-150" display="none"><g  id="v-138"><path  end="source" d="M 26 0 L 0 13 L 26 26 z"></path></g><g  id="v-139"><path  end="target" d="M 26 0 L 0 13 L 26 26 z"></path></g></g><g  id="v-149" display="none"><g  id="v-137" transform="translate(690, 630) "><g  event="remove"><circle r="11"></circle><path transform="scale(.8) translate(-16, -16)" d="M24.778,21.419 19.276,15.917 24.777,10.415 21.949,7.585 16.447,13.087 10.945,7.585 8.117,10.415 13.618,15.917 8.116,21.419 10.946,24.248 16.447,18.746 21.948,24.248z"></path><title>Remove link.</title></g><g  event="link:options"><circle r="11" transform="translate(25)"></circle><path fill="white" transform="scale(.55) translate(29, -16)" d="M31.229,17.736c0.064-0.571,0.104-1.148,0.104-1.736s-0.04-1.166-0.104-1.737l-4.377-1.557c-0.218-0.716-0.504-1.401-0.851-2.05l1.993-4.192c-0.725-0.91-1.549-1.734-2.458-2.459l-4.193,1.994c-0.647-0.347-1.334-0.632-2.049-0.849l-1.558-4.378C17.165,0.708,16.588,0.667,16,0.667s-1.166,0.041-1.737,0.105L12.707,5.15c-0.716,0.217-1.401,0.502-2.05,0.849L6.464,4.005C5.554,4.73,4.73,5.554,4.005,6.464l1.994,4.192c-0.347,0.648-0.632,1.334-0.849,2.05l-4.378,1.557C0.708,14.834,0.667,15.412,0.667,16s0.041,1.165,0.105,1.736l4.378,1.558c0.217,0.715,0.502,1.401,0.849,2.049l-1.994,4.193c0.725,0.909,1.549,1.733,2.459,2.458l4.192-1.993c0.648,0.347,1.334,0.633,2.05,0.851l1.557,4.377c0.571,0.064,1.148,0.104,1.737,0.104c0.588,0,1.165-0.04,1.736-0.104l1.558-4.377c0.715-0.218,1.399-0.504,2.049-0.851l4.193,1.993c0.909-0.725,1.733-1.549,2.458-2.458l-1.993-4.193c0.347-0.647,0.633-1.334,0.851-2.049L31.229,17.736zM16,20.871c-2.69,0-4.872-2.182-4.872-4.871c0-2.69,2.182-4.872,4.872-4.872c2.689,0,4.871,2.182,4.871,4.872C20.871,18.689,18.689,20.871,16,20.871z"></path><title>Link options.</title></g></g></g></g><!--z-index:25--><g   id="j_17" ><path  stroke="#444444" d="M 1400 630 L 1700 630" id="v-160" stroke-width="2" stroke-dasharray="8 8" fill="none" style="opacity: 1;"></path><path  fill="black" stroke="black" d="M 0 0 0 0" transform="matrix(1.0000000000000002,0,0,1.0000000000000002,1400,630)"></path><path  fill="#444444" stroke="#444444" d="M 20 0 L 0 10 L 20 20 z" id="v-162" transform="matrix(-1.0000000000000002,1.2246467991473535e-16,-1.2246467991473535e-16,-1.0000000000000002,1700,640)" style="opacity: 1;"></path><path  d="M 1400 630 L 1700 630" id="v-161" fill="none" style="cursor: auto; pointer-events: visiblepainted;"></path><g ><g id="v-154"  label-idx="0" cursor="move" transform="matrix(1,0,0,1,1550,630)" style="cursor: default; opacity: 1;"><rect joint-selector="rect" id="v-157" fill="#ffffff" rx="3" ry="3" pointer-events="none" width="52.80410385131836" height="32.62493705749512" transform="matrix(1,0,0,1,-26,-16.3)"></rect><text joint-selector="text" id="v-156" font-size="24px" xml:space="preserve" y="0.8em" fill="#444444" text-anchor="middle" pointer-events="none" font-family="Open Sans, Tahoma, Arial" font-weight="normal" transform="matrix(1,0,0,1,0,-9)"><tspan dy="0" >Calls</tspan></text></g><g id="v-155"  label-idx="1" cursor="move" transform="matrix(1,0,0,1,1540,642)" style="cursor: default; opacity: 1;"><rect joint-selector="rect" id="v-159" fill="#ffffff" rx="3" ry="3"  width="0" height="0" transform="matrix(1,0,0,1,0,0)" display="none"></rect><text joint-selector="text" id="v-158" fill="#000000" font-size="14" text-anchor="middle" pointer-events="none"></text></g></g><g  display="none" style="display: none;"></g><g  id="v-164" display="none"><g  id="v-152"><path  end="source" d="M 26 0 L 0 13 L 26 26 z"></path></g><g  id="v-153"><path  end="target" d="M 26 0 L 0 13 L 26 26 z"></path></g></g><g  id="v-163" display="none"><g  id="v-151" transform="translate(1440.0000000000002, 630) "><g  event="remove"><circle r="11"></circle><path transform="scale(.8) translate(-16, -16)" d="M24.778,21.419 19.276,15.917 24.777,10.415 21.949,7.585 16.447,13.087 10.945,7.585 8.117,10.415 13.618,15.917 8.116,21.419 10.946,24.248 16.447,18.746 21.948,24.248z"></path><title>Remove link.</title></g><g  event="link:options"><circle r="11" transform="translate(25)"></circle><path fill="white" transform="scale(.55) translate(29, -16)" d="M31.229,17.736c0.064-0.571,0.104-1.148,0.104-1.736s-0.04-1.166-0.104-1.737l-4.377-1.557c-0.218-0.716-0.504-1.401-0.851-2.05l1.993-4.192c-0.725-0.91-1.549-1.734-2.458-2.459l-4.193,1.994c-0.647-0.347-1.334-0.632-2.049-0.849l-1.558-4.378C17.165,0.708,16.588,0.667,16,0.667s-1.166,0.041-1.737,0.105L12.707,5.15c-0.716,0.217-1.401,0.502-2.05,0.849L6.464,4.005C5.554,4.73,4.73,5.554,4.005,6.464l1.994,4.192c-0.347,0.648-0.632,1.334-0.849,2.05l-4.378,1.557C0.708,14.834,0.667,15.412,0.667,16s0.041,1.165,0.105,1.736l4.378,1.558c0.217,0.715,0.502,1.401,0.849,2.049l-1.994,4.193c0.725,0.909,1.549,1.733,2.459,2.458l4.192-1.993c0.648,0.347,1.334,0.633,2.05,0.851l1.557,4.377c0.571,0.064,1.148,0.104,1.737,0.104c0.588,0,1.165-0.04,1.736-0.104l1.558-4.377c0.715-0.218,1.399-0.504,2.049-0.851l4.193,1.993c0.909-0.725,1.733-1.549,2.458-2.458l-1.993-4.193c0.347-0.647,0.633-1.334,0.851-2.049L31.229,17.736zM16,20.871c-2.69,0-4.872-2.182-4.872-4.871c0-2.69,2.182-4.872,4.872-4.872c2.689,0,4.871,2.182,4.871,4.872C20.871,18.689,18.689,20.871,16,20.871z"></path><title>Link options.</title></g></g></g></g><!--z-index:26--></g><g ></g><g ></g><g ></g></g></svg>